<?xml version="1.0" encoding="UTF-8" standalone="no"?>
<!DOCTYPE svg PUBLIC "-//W3C//DTD SVG 1.1//EN" "http://www.w3.org/Graphics/SVG/1.1/DTD/svg11.dtd">
<svg width="100%" height="100%" viewBox="0 0 436 436" version="1.1" xmlns="http://www.w3.org/2000/svg" xmlns:xlink="http://www.w3.org/1999/xlink" xml:space="preserve" xmlns:serif="http://www.serif.com/" style="fill-rule:evenodd;clip-rule:evenodd;stroke-linejoin:round;stroke-miterlimit:2;">
    <g transform="matrix(1,0,0,1,-7691.16,-3816.25)">
        <path d="M7691.16,4251.97L7691.16,3816.25L7723.53,3816.25L7723.53,4219.6L8126.88,4219.6L8126.88,4251.97L7691.16,4251.97ZM8094.51,3848.62L8094.51,3816.25L8126.88,3816.25L8126.88,3848.62L8094.51,3848.62ZM8027.29,3915.84L8027.29,3816.25L8059.66,3816.25L8059.66,3883.47L8126.88,3883.47L8126.88,3915.84L8027.29,3915.84ZM7992.43,3950.7L8126.88,3950.7L8126.88,3983.07L7960.06,3983.07L7960.06,3816.25L7992.43,3816.25L7992.43,3950.7ZM7892.84,4050.29L7892.84,3816.25L7925.2,3816.25L7925.2,4017.92L8126.88,4017.92L8126.88,4050.29L7892.84,4050.29ZM7857.98,4085.15L8126.88,4085.15L8126.88,4117.52L7825.61,4117.52L7825.61,3816.25L7857.98,3816.25L7857.98,4085.15ZM7758.39,4184.74L7758.39,3816.25L7790.75,3816.25L7790.75,4152.38L8126.88,4152.38L8126.88,4184.74L7758.39,4184.74Z" style="fill-rule:nonzero;"/>
    </g>
</svg>
